<svg width="739" height="168" viewBox="0 0 739 168" fill="none" xmlns="http://www.w3.org/2000/svg">
<path d="M252.651 110.123C239.265 110.561 228.36 99.3651 228.36 85.9783V84.81C228.36 71.1312 238.048 59.9349 251.532 59.9349C257.13 59.9349 261.852 61.59 266.282 64.5108C269.786 66.7987 274.508 65.9711 277.283 62.807C280.691 58.864 279.912 52.7304 275.531 49.907C269.446 46.0613 261.949 43.7247 251.629 43.7247C227.095 43.7247 209.96 62.3202 209.96 85.0534V85.2968C209.96 108.225 227.436 126.382 250.948 126.382C266.379 126.382 275.482 120.881 283.709 112.119L272.513 100.826C266.525 106.278 261.122 109.831 252.651 110.123Z" fill="#02C9D7"/>
<path d="M325.086 62.6605C306.004 62.6605 291.838 76.9235 291.838 94.4967V94.7402C291.838 112.313 305.906 126.382 324.842 126.382C343.925 126.382 358.09 112.119 358.09 94.5454V94.2534C358.09 76.6801 344.022 62.6605 325.086 62.6605ZM340.955 94.7402C340.955 103.746 335.016 111.388 325.086 111.388C315.496 111.388 308.973 103.502 308.973 94.4967V94.2534C308.973 85.2477 314.912 77.605 324.842 77.605C334.432 77.605 340.955 85.4911 340.955 94.4967V94.7402Z" fill="#02C9D7"/>
<path d="M431.256 45.0878C426.388 45.0878 422.445 49.0308 422.445 53.8987V76.7293H390.025V53.85C390.025 48.9821 386.082 45.0391 381.214 45.0391C376.346 45.0391 372.403 48.9821 372.403 53.85V124.97H389.976V92.8908H422.396V124.97H439.97V53.85C440.067 48.9821 436.124 45.0878 431.256 45.0878Z" fill="#02C9D7"/>
<path d="M484.706 62.6605C466.89 62.6605 454.428 77.0696 454.428 94.4967V94.7402C454.428 113.482 468.009 126.382 486.41 126.382C497.509 126.382 505.687 122.049 511.431 114.942L501.501 106.131C496.681 110.561 492.495 112.411 486.653 112.411C478.913 112.411 473.413 108.322 471.709 100.436H514.303C514.401 98.8292 514.547 97.2228 514.547 95.8598C514.498 78.53 505.151 62.6605 484.706 62.6605ZM471.465 89.5801C472.828 81.6941 477.502 76.5828 484.706 76.5828C492.008 76.5828 496.584 81.8401 497.606 89.5801H471.465Z" fill="#02C9D7"/>
<path d="M610.348 41.6312C605.577 41.6312 601.683 45.5255 601.683 50.2961V124.97H619.061V50.2961C619.061 45.5255 615.167 41.6312 610.348 41.6312Z" fill="#02C9D7"/>
<path d="M655.57 48.1543H638.192V63.7803H630.89V78.6275H638.192V107.64C638.192 121.806 645.396 126.041 656.009 126.041C661.85 126.041 666.036 124.678 669.687 122.488V108.565C667.156 109.928 664.333 110.756 661.12 110.756C657.226 110.756 655.522 108.809 655.522 104.817V78.6762H669.931V63.829H655.522V48.1543H655.57Z" fill="#02C9D7"/>
<path d="M718.027 62.6606C709.216 62.6606 704.104 67.3339 700.113 72.4939V50.3448C700.113 45.5742 696.218 41.6799 691.448 41.6799C686.677 41.6799 682.783 45.5742 682.783 50.3448V125.019H700.161V90.8459C700.161 82.6191 704.396 78.384 711.017 78.384C717.637 78.384 721.532 82.6191 721.532 90.8459V124.97H738.91V85.3452C738.813 71.3256 731.17 62.6606 718.027 62.6606Z" fill="#02C9D7"/>
<path d="M581.528 62.2227C578.17 62.2227 575.297 64.1212 573.837 66.8959C568.969 64.1699 563.225 62.6122 556.945 62.6122C537.863 62.6122 523.697 76.8752 523.697 94.4484V94.6918C523.697 112.265 537.766 126.333 556.702 126.333C562.641 126.333 568.093 124.97 572.815 122.536V124.97H590.193V70.8876C590.193 66.1171 586.348 62.2227 581.528 62.2227ZM556.994 111.389C547.404 111.389 540.881 103.503 540.881 94.4971V94.2537C540.881 85.248 546.82 77.6054 556.751 77.6054C566.34 77.6054 572.864 85.4914 572.864 94.4971V94.7405C572.864 103.746 566.925 111.389 556.994 111.389Z" fill="#02C9D7"/>
<path d="M65.8815 102.097C62.8101 99.026 62.8101 94.0309 65.8815 90.9595C68.9528 87.8882 73.948 87.8882 77.0193 90.9595C86.1321 100.072 100.915 100.072 110.028 90.9595L145.399 55.5885C154.512 46.4757 154.512 31.6927 145.399 22.5799C136.32 13.5009 121.537 13.5009 112.424 22.5462L105.741 29.3639C102.704 32.469 97.7087 32.5365 94.6036 29.4989C91.4985 26.4613 91.431 21.4662 94.4686 18.3611L101.253 11.4421C116.508 -3.81336 141.281 -3.81336 156.537 11.4421C171.792 26.6976 171.792 51.4708 156.537 66.7263L121.132 102.131C105.91 117.353 81.1369 117.353 65.8815 102.097Z" fill="#02C9D7"/>
<path d="M11.4741 66.7258C-3.78142 51.4703 -3.78143 26.6971 11.474 11.4416C26.7295 -3.81387 51.5028 -3.81386 66.7582 11.4416L88.8989 33.5823C91.9703 36.6536 91.9703 41.6488 88.8989 44.7201C85.8276 47.7915 80.8324 47.7915 77.7611 44.7201L55.6204 22.5794C46.5076 13.4667 31.7247 13.4667 22.6119 22.5794C13.4991 31.6922 13.4991 46.4752 22.6119 55.5879C25.6832 58.6593 25.6832 63.6544 22.6119 66.7258C19.5406 69.7971 14.5454 69.7971 11.4741 66.7258Z" fill="#FB9678"/>
<path d="M101.286 156.537L79.584 134.835C76.5127 131.764 76.5127 126.769 79.584 123.697C82.6554 120.626 87.6505 120.626 90.7219 123.697L112.424 145.399C121.537 154.512 136.32 154.512 145.432 145.399C154.545 136.287 154.545 121.504 145.432 112.391C142.361 109.319 142.361 104.324 145.432 101.253C148.504 98.1816 153.499 98.1816 156.57 101.253C171.826 116.508 171.826 141.282 156.57 156.537C141.315 171.793 116.508 171.759 101.286 156.537Z" fill="#FB9678"/>
<path d="M11.4416 156.538C-3.81387 141.282 -3.81387 116.509 11.4416 101.254L46.8464 65.8487C62.1019 50.5932 86.8752 50.5932 102.131 65.8487C105.202 68.92 105.202 73.9152 102.131 76.9865C99.0593 80.0579 94.0641 80.0579 90.9928 76.9865C81.88 67.8738 67.0971 67.8737 57.9843 76.9865L22.5794 112.391C13.4667 121.504 13.4667 136.287 22.5795 145.4C31.6585 154.479 46.4414 154.479 55.5542 145.434L62.2369 138.616C65.2745 135.511 70.2697 135.443 73.3748 138.481C73.4085 138.515 73.4085 138.515 73.4423 138.548C76.4799 141.586 76.5136 146.547 73.5098 149.619L66.7258 156.538C51.5041 171.759 26.6971 171.793 11.4416 156.538Z" fill="#02C9D7"/>
</svg>
