<svg width="169" height="168" viewBox="0 0 169 168" fill="none" xmlns="http://www.w3.org/2000/svg">
<path d="M65.8815 102.097C62.8101 99.026 62.8101 94.0309 65.8815 90.9595C68.9528 87.8882 73.948 87.8882 77.0193 90.9595C86.1321 100.072 100.915 100.072 110.028 90.9595L145.399 55.5885C154.512 46.4757 154.512 31.6927 145.399 22.5799C136.32 13.5009 121.537 13.5009 112.424 22.5462L105.741 29.3639C102.704 32.469 97.7087 32.5365 94.6036 29.4989C91.4985 26.4613 91.431 21.4662 94.4686 18.3611L101.253 11.4421C116.508 -3.81336 141.281 -3.81336 156.537 11.4421C171.792 26.6976 171.792 51.4708 156.537 66.7263L121.132 102.131C105.91 117.353 81.1369 117.353 65.8815 102.097Z" fill="#02C9D7"/>
<path d="M11.4741 66.7258C-3.78142 51.4703 -3.78143 26.6971 11.474 11.4416C26.7295 -3.81387 51.5028 -3.81386 66.7582 11.4416L88.8989 33.5823C91.9703 36.6536 91.9703 41.6488 88.8989 44.7201C85.8276 47.7915 80.8324 47.7915 77.7611 44.7201L55.6204 22.5794C46.5076 13.4667 31.7247 13.4667 22.6119 22.5794C13.4991 31.6922 13.4991 46.4752 22.6119 55.5879C25.6832 58.6593 25.6832 63.6544 22.6119 66.7258C19.5406 69.7971 14.5454 69.7971 11.4741 66.7258Z" fill="#FB9678"/>
<path d="M101.286 156.537L79.584 134.835C76.5127 131.764 76.5127 126.769 79.584 123.697C82.6554 120.626 87.6505 120.626 90.7219 123.697L112.424 145.399C121.537 154.512 136.32 154.512 145.432 145.399C154.545 136.287 154.545 121.504 145.432 112.391C142.361 109.319 142.361 104.324 145.432 101.253C148.504 98.1816 153.499 98.1816 156.57 101.253C171.826 116.508 171.826 141.282 156.57 156.537C141.315 171.793 116.508 171.759 101.286 156.537Z" fill="#FB9678"/>
<path d="M11.4416 156.538C-3.81387 141.282 -3.81387 116.509 11.4416 101.254L46.8464 65.8487C62.1019 50.5932 86.8752 50.5932 102.131 65.8487C105.202 68.92 105.202 73.9152 102.131 76.9865C99.0593 80.0579 94.0641 80.0579 90.9928 76.9865C81.88 67.8738 67.0971 67.8737 57.9843 76.9865L22.5794 112.391C13.4667 121.504 13.4667 136.287 22.5795 145.4C31.6585 154.479 46.4414 154.479 55.5542 145.434L62.2369 138.616C65.2745 135.511 70.2697 135.443 73.3748 138.481C73.4085 138.515 73.4085 138.515 73.4423 138.548C76.4799 141.586 76.5136 146.547 73.5098 149.619L66.7258 156.538C51.5041 171.759 26.6971 171.793 11.4416 156.538Z" fill="#02C9D7"/>
</svg>
